<?xml version="1.0" standalone="no"?>
<!DOCTYPE svg PUBLIC "-//W3C//DTD SVG 20010904//EN"
 "http://www.w3.org/TR/2001/REC-SVG-20010904/DTD/svg10.dtd">
<svg version="1.0" xmlns="http://www.w3.org/2000/svg"
 width="300.000000pt" height="208.000000pt" viewBox="0 0 300.000000 208.000000"
 preserveAspectRatio="xMidYMid meet">
<metadata>
Created by potrace 1.15, written by Peter Selinger 2001-2017
</metadata>
<g transform="translate(0.000000,208.000000) scale(0.100000,-0.100000)"
fill="#000000" stroke="none">
<path d="M2293 2060 c-100 -36 -217 -133 -305 -254 -29 -39 -53 -72 -53 -74
-1 -1 -35 13 -76 32 -100 46 -167 60 -279 59 -143 -1 -293 -45 -443 -130 -33
-18 -65 -33 -73 -33 -49 0 -141 143 -165 259 l-12 56 -13 -30 c-7 -16 -13 -36
-14 -43 0 -7 -4 -10 -10 -7 -5 3 -10 0 -10 -7 0 -7 -5 -20 -10 -28 -8 -13 -11
-12 -25 5 -16 19 -16 18 -11 -25 3 -25 8 -56 12 -70 5 -20 4 -22 -6 -10 -9 12
-11 10 -7 -12 5 -34 3 -34 -35 -3 -39 33 -53 32 -31 -2 l17 -26 -37 7 c-23 4
-37 3 -37 -4 0 -5 -12 -10 -26 -10 -19 0 -25 -4 -20 -15 3 -9 0 -15 -10 -15
-8 0 -12 -4 -9 -10 3 -5 -5 -12 -19 -16 -15 -3 -23 -11 -20 -19 3 -7 1 -16 -5
-20 -27 -16 -3 -23 97 -27 122 -4 167 -21 178 -65 6 -24 -2 -35 -77 -104 -46
-43 -99 -86 -118 -95 -103 -50 -310 78 -401 247 -36 66 -46 64 -38 -8 3 -28 1
-34 -12 -30 -14 3 -16 -2 -14 -24 2 -16 -1 -29 -6 -29 -6 0 -9 -3 -9 -7 3 -19
-3 -22 -27 -12 -15 5 -29 7 -31 5 -3 -3 16 -27 42 -55 46 -49 47 -51 22 -51
-22 0 -25 -4 -21 -25 4 -23 -1 -28 -46 -47 -28 -12 -46 -24 -40 -28 6 -4 -1
-12 -17 -20 l-28 -13 58 -15 c47 -12 55 -17 46 -28 -6 -8 -8 -14 -3 -14 5 -1
-2 -7 -15 -14 -14 -8 -19 -16 -13 -20 6 -4 -2 -18 -20 -36 l-30 -31 25 -23 26
-24 -40 -26 c-21 -15 -39 -31 -39 -36 0 -6 19 -10 43 -10 27 0 37 -3 29 -9
-11 -7 -10 -9 3 -15 9 -3 14 -10 10 -15 -3 -6 3 -14 12 -20 12 -7 13 -11 5
-11 -8 0 -12 -6 -10 -12 3 -7 -6 -21 -19 -32 -13 -10 -22 -21 -18 -24 3 -3 -7
-19 -22 -35 l-28 -29 40 8 39 7 -27 -32 c-17 -21 -27 -44 -27 -66 l0 -33 47
44 c62 58 202 128 296 149 105 23 141 12 204 -62 139 -164 262 -294 329 -350
224 -188 441 -291 629 -300 123 -6 133 -9 157 -49 11 -19 33 -41 49 -49 51
-27 167 -17 369 29 58 14 134 29 169 35 128 21 245 100 296 202 53 104 69 233
36 304 -18 40 -51 77 -51 57 0 -6 5 -14 10 -17 20 -12 11 -100 -16 -153 -14
-29 -29 -52 -33 -52 -4 0 -5 27 -3 61 6 77 -12 101 -22 29 -10 -72 -22 -100
-45 -100 -16 0 -21 12 -32 73 l-12 72 -18 -40 c-10 -22 -21 -55 -25 -73 -6
-31 -24 -45 -24 -18 0 15 -77 106 -90 106 -7 0 1 -54 16 -102 3 -10 1 -18 -5
-18 -6 0 -11 8 -11 18 0 10 -7 27 -15 38 -14 19 -14 19 -15 -3 0 -12 -3 -28
-6 -37 -11 -29 -24 -17 -24 23 0 56 -16 59 -29 6 -6 -25 -15 -45 -19 -45 -23
1 -29 18 -23 65 8 61 0 130 -12 102 -4 -10 -7 -29 -7 -41 0 -13 -5 -38 -12
-57 l-12 -34 -12 30 c-11 27 -13 28 -19 10 -21 -63 -21 -63 -44 -18 -27 55
-27 71 4 83 21 8 29 6 48 -13 l22 -22 3 38 c4 43 44 79 65 58 19 -19 30 -13
23 13 -5 20 0 29 26 47 20 15 44 22 63 21 28 -2 29 -2 11 12 -17 14 -17 16 10
51 25 33 28 35 37 18 11 -20 27 -33 41 -33 5 0 6 24 3 53 -4 42 -1 58 16 84
12 18 24 33 27 33 3 0 20 -21 38 -47 30 -44 32 -45 32 -20 0 14 -7 46 -15 71
-15 42 -12 76 5 76 5 0 12 -5 15 -10 13 -22 20 -8 17 35 -4 46 11 62 23 25 3
-11 11 -20 16 -20 13 0 11 31 -4 60 -8 15 -10 35 -6 50 13 47 9 125 -10 166
-25 56 -90 108 -180 144 -162 66 -197 88 -286 177 l-86 86 38 56 c91 135 227
234 339 247 143 17 274 -100 389 -350 20 -43 34 -80 31 -84 -3 -3 -2 -10 3
-16 5 -6 12 -32 16 -58 6 -40 4 -47 -12 -51 -16 -4 -16 -5 0 -6 20 -1 23 -17
5 -24 -8 -3 -6 -6 5 -6 9 -1 17 -5 17 -11 0 -5 -8 -7 -17 -4 -14 5 -15 4 -4
-4 11 -8 11 -11 0 -16 -8 -3 -5 -4 7 -1 12 3 26 -1 33 -9 11 -13 9 -15 -8 -11
-11 2 -23 0 -26 -6 -9 -14 -27 -11 -19 4 4 6 3 8 -1 4 -15 -13 -14 -36 1 -30
8 3 14 -1 14 -8 0 -8 5 -6 13 6 8 10 26 19 41 21 22 2 26 -1 21 -15 -3 -10 -1
-29 4 -42 9 -21 10 -19 10 19 1 51 14 53 53 10 l29 -33 -28 39 c-19 27 -24 41
-15 44 6 2 10 7 7 12 -3 5 11 4 31 -2 51 -14 53 -4 2 12 -37 11 -40 14 -23 21
17 6 17 8 3 8 -31 2 -20 16 25 33 23 9 33 17 22 17 -11 0 -29 -4 -40 -8 -13
-5 -25 -3 -34 7 -13 13 -13 16 5 30 19 14 19 15 -1 8 -22 -8 -17 -2 29 32 40
30 23 28 -22 -3 l-37 -26 -22 28 c-13 15 -23 38 -23 51 0 12 -4 22 -8 22 -5 0
-16 26 -26 58 -32 103 -106 230 -176 302 -101 104 -206 133 -327 90z"/>
</g>
</svg>
