<?xml version="1.0" standalone="no"?>
<!DOCTYPE svg PUBLIC "-//W3C//DTD SVG 20010904//EN"
 "http://www.w3.org/TR/2001/REC-SVG-20010904/DTD/svg10.dtd">
<svg version="1.0" xmlns="http://www.w3.org/2000/svg"
 width="1280.000000pt" height="621.000000pt" viewBox="0 0 1280.000000 621.000000"
 preserveAspectRatio="xMidYMid meet">
<g transform="translate(0.000000,621.000000) scale(0.100000,-0.100000)"
fill="#000000" stroke="none">
<path d="M7916 6194 c-334 -60 -767 -309 -1191 -685 -60 -53 -126 -113 -144
-133 -19 -20 -38 -36 -41 -36 -4 0 -19 24 -35 53 -15 28 -29 53 -30 55 -1 1
-35 -5 -75 -15 l-72 -17 -32 35 c-17 19 -47 54 -66 78 l-35 43 -66 -36 -66
-36 -15 22 c-8 13 -30 52 -48 88 -18 36 -34 67 -36 69 -2 2 -31 -7 -64 -19
-35 -13 -65 -19 -69 -14 -4 5 -23 52 -41 104 -18 52 -35 97 -38 100 -2 3 -25
-19 -51 -48 l-47 -53 -73 106 c-41 58 -77 105 -81 105 -4 0 -20 -18 -35 -40
-15 -22 -30 -40 -34 -40 -3 0 -49 27 -101 60 l-95 59 -30 -35 -30 -35 -99 81
c-76 63 -101 79 -108 69 -4 -8 -25 -42 -44 -76 -20 -35 -39 -65 -43 -67 -4 -3
-54 42 -111 99 -58 58 -108 105 -112 105 -3 0 -9 -26 -13 -58 -10 -84 -17 -92
-57 -62 -18 13 -65 48 -104 76 l-72 53 -47 -137 c-26 -75 -51 -141 -55 -146
-5 -4 -54 16 -109 45 -56 29 -103 50 -105 48 -1 -2 -10 -95 -18 -207 -9 -111
-17 -205 -20 -207 -2 -3 -44 11 -92 31 -49 19 -91 34 -95 32 -4 -2 16 -115 45
-253 29 -137 52 -250 51 -251 -1 -1 -78 -20 -172 -43 -212 -53 -590 -178 -796
-264 -412 -172 -777 -387 -1045 -614 -48 -40 -78 -56 -135 -73 -320 -95 -854
-357 -1359 -666 -173 -106 -200 -128 -200 -162 0 -51 11 -72 36 -72 69 0 314
-163 603 -401 183 -151 177 -144 106 -113 -147 63 -179 75 -259 98 -90 27
-164 60 -236 109 -83 56 -234 181 -326 269 l-91 88 -36 -34 c-41 -37 -57 -71
-57 -120 0 -214 436 -583 1052 -892 707 -354 1614 -622 2540 -748 171 -24 450
-56 481 -56 11 0 16 -24 21 -97 21 -296 120 -692 228 -907 160 -321 383 -430
663 -325 159 59 288 227 344 446 46 180 48 422 4 507 -47 92 -146 166 -222
166 -57 0 -100 16 -263 96 l-153 75 205 -6 c345 -10 979 17 1405 61 330 34
693 112 1021 220 l171 56 79 -76 c168 -159 333 -275 529 -372 223 -109 375
-148 580 -146 106 0 149 5 230 26 169 44 363 150 447 245 57 64 158 212 207
302 230 422 123 758 -293 926 -74 29 -78 32 -51 39 45 11 407 -3 785 -31 190
-14 435 -29 545 -33 l200 -7 95 -46 c119 -58 250 -144 516 -341 275 -202 406
-292 536 -367 201 -115 366 -171 513 -174 85 -2 94 0 153 32 68 37 141 110
173 174 57 111 73 285 44 479 -27 178 -46 252 -209 838 l-66 235 10 160 c11
185 26 299 74 590 60 364 65 485 30 644 -27 122 -143 294 -228 338 -137 71
-588 -156 -1441 -725 -334 -223 -353 -234 -420 -247 -242 -46 -684 -46 -910 0
-329 66 -445 101 -689 209 -127 57 -253 111 -281 122 l-50 19 226 5 226 5 43
30 c24 17 89 75 145 130 138 135 259 318 291 440 18 65 18 216 0 282 -64 239
-278 455 -607 612 -156 74 -210 92 -392 130 -289 60 -466 73 -621 45z"/>
</g>
</svg>
