<?xml version="1.0" standalone="no"?>
<!DOCTYPE svg PUBLIC "-//W3C//DTD SVG 20010904//EN"
 "http://www.w3.org/TR/2001/REC-SVG-20010904/DTD/svg10.dtd">
<svg version="1.0" xmlns="http://www.w3.org/2000/svg"
 width="1280.000000pt" height="640.000000pt" viewBox="0 0 1280.000000 640.000000"
 preserveAspectRatio="xMidYMid meet">
<g transform="translate(0.000000,640.000000) scale(0.100000,-0.100000)"
fill="#000000" stroke="none">
<path d="M6645 5155 c-123 -33 -338 -143 -545 -279 -228 -150 -363 -270 -533
-476 -106 -129 -321 -264 -541 -340 l-88 -30 -147 10 c-80 5 -279 10 -441 10
-785 0 -1383 -99 -2150 -356 -588 -197 -1087 -480 -1297 -736 -29 -35 -74 -92
-100 -127 -62 -84 -108 -114 -408 -268 -265 -136 -327 -174 -369 -223 -41 -50
-32 -96 26 -126 74 -38 167 -45 703 -54 589 -9 479 4 1115 -125 562 -113 954
-177 1372 -224 l167 -19 76 -57 c225 -169 519 -317 765 -385 115 -31 290 -46
405 -34 169 19 157 46 -65 148 -71 33 -208 133 -294 214 -31 29 -56 54 -56 55
0 1 231 0 512 -1 702 -5 1101 8 2143 68 959 56 1323 63 1851 35 297 -16 345
-20 714 -55 645 -61 1137 -90 1523 -90 l279 0 91 -61 c380 -254 962 -428 1307
-390 101 11 150 26 134 41 -5 4 -52 17 -104 30 -186 43 -371 136 -489 246 -32
30 -84 92 -115 139 -32 46 -78 107 -102 134 -47 52 -148 111 -191 111 -22 0
-23 3 -18 34 10 48 -24 118 -90 186 -79 83 -83 143 -17 222 13 16 21 32 17 36
-11 11 -147 -65 -238 -134 -46 -35 -111 -92 -144 -128 l-61 -65 -123 76 c-631
383 -1207 681 -1721 889 -423 172 -875 315 -1398 442 -245 60 -761 174 -1050
232 -125 25 -204 61 -293 135 -199 164 -266 388 -198 657 41 158 99 266 266
491 72 98 81 131 39 147 -33 13 -58 12 -119 -5z"/>
</g>
</svg>
