<?xml version="1.0" standalone="no"?>
<!DOCTYPE svg PUBLIC "-//W3C//DTD SVG 20010904//EN"
 "http://www.w3.org/TR/2001/REC-SVG-20010904/DTD/svg10.dtd">
<svg version="1.0" xmlns="http://www.w3.org/2000/svg"
 width="1210.000000pt" height="1280.000000pt" viewBox="0 0 1210.000000 1280.000000"
 preserveAspectRatio="xMidYMid meet">
<g transform="translate(0.000000,1280.000000) scale(0.100000,-0.100000)"
fill="#000000" stroke="none">
<path d="M5381 12658 c-34 -186 -44 -325 -38 -542 7 -291 51 -516 147 -754 21
-53 38 -97 37 -99 -4 -3 -277 390 -440 633 -161 241 -331 511 -413 656 -27 48
-50 85 -52 84 -1 -2 15 -66 37 -143 50 -177 114 -473 137 -628 22 -159 23
-351 1 -430 -87 -310 -6 -779 217 -1260 42 -92 44 -97 17 -65 -81 96 -231 371
-304 555 -48 121 -102 302 -123 414 -11 56 -21 86 -26 78 -4 -8 -21 -81 -38
-163 -37 -180 -50 -382 -30 -501 43 -270 253 -688 550 -1097 24 -33 37 -56 29
-51 -8 5 -120 81 -249 170 -129 89 -421 289 -647 443 -227 155 -452 310 -500
345 -136 97 -159 112 -147 97 198 -266 309 -395 579 -669 242 -247 242 -252
-1 -44 -316 271 -629 607 -791 851 -41 61 -76 112 -78 112 -2 0 1 -197 10
-565 8 -335 35 -496 113 -680 17 -38 29 -71 27 -73 -5 -5 -186 110 -322 205
-281 195 -614 495 -818 738 -99 117 -249 319 -292 392 -14 24 -27 42 -30 40
-7 -8 75 -248 128 -379 187 -454 438 -819 729 -1061 l45 -37 -105 49 c-367
170 -950 478 -1188 627 l-134 83 62 -67 c237 -261 420 -486 535 -662 96 -145
130 -214 175 -350 75 -229 170 -397 337 -605 99 -123 284 -304 421 -413 57
-45 99 -82 95 -82 -13 0 -201 108 -278 160 -181 122 -365 290 -503 460 -47 58
-89 109 -93 114 -13 15 29 -128 78 -264 58 -163 130 -308 193 -392 164 -217
463 -444 865 -655 127 -67 136 -73 95 -68 -64 8 -482 49 -915 90 -203 19 -430
42 -503 51 -74 9 -136 14 -138 11 -8 -8 231 -121 381 -180 77 -30 219 -80 315
-112 233 -76 234 -76 185 -69 -78 11 -392 93 -550 144 -228 75 -452 173 -584
257 -36 23 -52 29 -47 18 7 -20 162 -286 280 -484 121 -202 185 -287 297 -396
248 -241 585 -385 1029 -440 69 -8 152 -16 185 -16 l60 -2 -45 -8 c-25 -4
-304 -8 -620 -9 l-575 -2 245 -53 c542 -119 1083 -209 1595 -266 l210 -24 -90
-7 c-235 -18 -780 -40 -1155 -45 -242 -4 -400 -10 -378 -14 62 -14 296 -47
443 -63 260 -29 419 -38 667 -40 135 0 245 -2 244 -4 -6 -6 -331 -61 -446 -76
-197 -25 -427 -36 -557 -26 -65 5 -119 7 -121 5 -5 -5 74 -50 158 -88 195 -90
470 -158 774 -192 71 -8 131 -17 134 -20 3 -3 -120 -5 -274 -5 -247 0 -413 9
-509 25 -114 19 408 -159 670 -229 524 -140 711 -148 1244 -56 63 11 116 19
117 17 1 -1 -84 -48 -189 -105 -106 -56 -287 -156 -403 -222 l-211 -120 -229
-54 c-126 -30 -302 -72 -390 -95 -89 -23 -171 -41 -183 -41 -11 0 -21 -4 -21
-10 0 -5 16 -10 35 -10 46 0 45 -13 -2 -29 -21 -8 -47 -20 -58 -27 -19 -13
-18 -14 8 -14 15 0 27 -2 27 -4 0 -2 -21 -25 -47 -53 -27 -27 -82 -86 -123
-130 -42 -44 -94 -90 -115 -101 -35 -19 -37 -21 -15 -22 32 0 20 -11 -61 -56
-67 -37 -67 -36 31 -17 28 5 -110 -72 -263 -147 l-98 -49 43 -5 c24 -3 57 -7
73 -8 26 -3 7 -19 -170 -137 -110 -74 -221 -144 -248 -157 -58 -27 -11 -29
-672 42 -672 73 -766 79 -984 65 -262 -17 -516 -61 -706 -122 -145 -46 -186
-81 -127 -108 207 -97 1433 -434 1671 -461 136 -15 171 -44 171 -142 -1 -99
-37 -165 -281 -508 -368 -519 -788 -1188 -960 -1530 -143 -287 -163 -404 -77
-464 88 -62 301 83 601 409 250 271 519 616 1319 1690 183 246 293 370 405
456 59 46 97 56 298 78 55 6 115 14 133 17 93 15 -41 -50 -147 -71 l-56 -12
65 -7 c131 -14 142 -17 128 -34 -11 -13 -5 -14 50 -10 34 2 62 2 62 0 0 -2
-10 -12 -22 -22 l-23 -19 40 6 c54 7 270 81 375 127 l85 37 -29 -30 c-30 -31
-128 -87 -225 -127 l-56 -23 55 0 c108 -1 246 43 440 139 253 126 335 156 480
179 74 12 221 39 325 60 105 22 191 38 192 37 6 -5 -251 -198 -394 -294 -95
-63 -171 -117 -170 -119 2 -1 27 7 56 18 30 11 55 18 58 15 9 -9 -338 -239
-452 -300 -27 -14 -43 -26 -35 -26 27 0 201 50 268 77 124 49 946 460 1017
507 39 26 75 50 80 53 6 2 -66 -71 -160 -163 -93 -91 -159 -161 -145 -154 61
31 354 232 550 378 118 88 216 159 219 157 12 -13 -103 -163 -248 -325 -47
-52 -79 -90 -71 -84 163 116 310 244 510 440 l165 162 160 50 c520 164 1578
499 1740 552 880 286 1274 444 1755 705 63 34 234 124 380 200 293 153 484
260 599 337 346 231 702 622 966 1058 91 151 207 379 201 395 -3 8 -17 20 -31
27 -17 8 -25 19 -25 37 0 47 -42 114 -92 148 -52 34 -157 71 -283 100 -106 24
-436 24 -650 -1 -193 -22 -704 -100 -865 -132 -211 -42 -482 -112 -729 -188
l-114 -35 -91 78 c-84 72 -94 85 -125 157 -61 142 -259 525 -356 692 -351 599
-703 1066 -1495 1982 -429 495 -556 651 -772 950 -601 831 -939 1572 -1038
2277 -10 74 -21 137 -23 140 -3 2 -14 -47 -26 -109z"/>
</g>
</svg>
