<?xml version="1.0" standalone="no"?>
<!DOCTYPE svg PUBLIC "-//W3C//DTD SVG 20010904//EN"
 "http://www.w3.org/TR/2001/REC-SVG-20010904/DTD/svg10.dtd">
<svg version="1.0" xmlns="http://www.w3.org/2000/svg"
 width="1280.000000pt" height="1184.000000pt" viewBox="0 0 1280.000000 1184.000000"
 preserveAspectRatio="xMidYMid meet">
<g transform="translate(0.000000,1184.000000) scale(0.100000,-0.100000)"
fill="#000000" stroke="none">
<path d="M7670 11834 c-19 -2 -93 -9 -165 -15 -868 -75 -1683 -368 -2335 -837
-659 -475 -1230 -1188 -1611 -2013 -44 -96 -91 -184 -104 -195 -15 -14 -43
-24 -82 -28 -137 -16 -303 -71 -476 -158 -231 -115 -378 -217 -657 -457 -212
-183 -381 -308 -443 -327 -12 -4 -25 -11 -28 -15 -11 -18 -179 -79 -324 -118
-186 -49 -294 -88 -412 -149 -213 -109 -398 -272 -585 -518 -123 -162 -121
-160 -257 -254 -74 -51 -110 -70 -125 -66 -31 8 -42 -4 -50 -54 -3 -25 -9 -62
-12 -83 -8 -50 25 -115 116 -230 38 -49 95 -134 126 -190 82 -149 114 -195
184 -265 88 -88 223 -174 459 -292 153 -77 230 -122 310 -183 180 -137 359
-218 611 -277 208 -47 264 -69 399 -149 l125 -74 -108 -37 c-139 -50 -333
-147 -421 -212 -106 -78 -242 -222 -316 -333 -113 -168 -174 -307 -238 -534
-118 -419 -125 -848 -17 -1181 43 -132 118 -335 128 -345 5 -5 3 8 -6 29 -9
22 -15 41 -13 43 2 2 54 -97 115 -219 101 -203 161 -354 163 -411 0 -21 1 -21
9 -2 5 11 9 61 9 110 2 192 -33 365 -113 568 -26 65 -63 166 -83 225 -33 97
-36 117 -37 222 0 130 14 181 83 286 89 138 307 351 663 647 247 206 378 364
483 582 52 109 87 222 100 323 4 28 8 52 9 52 1 0 36 -11 77 -25 41 -14 130
-42 199 -61 69 -20 133 -43 144 -52 16 -15 17 -27 11 -106 -12 -151 -7 -418
10 -548 45 -340 134 -634 291 -955 114 -234 208 -372 427 -630 57 -65 125
-187 168 -296 60 -152 252 -372 405 -461 124 -73 352 -136 493 -136 44 0 46
-2 169 -131 134 -140 245 -232 363 -302 75 -44 240 -119 247 -112 9 9 -23 79
-79 171 -83 134 -108 186 -135 274 -13 41 -24 78 -24 83 0 4 37 7 83 8 l82 1
-92 26 -91 26 -31 126 c-76 316 -121 703 -121 1055 0 217 8 320 36 488 l17 97
74 -142 c179 -343 390 -656 620 -918 196 -222 371 -376 628 -549 324 -219 593
-356 1530 -783 121 -55 258 -120 305 -143 164 -82 424 -197 449 -198 24 -2 26
1 25 35 -2 63 -102 214 -233 351 -25 27 -114 102 -197 167 -256 201 -253 196
-345 596 -66 289 -115 398 -261 574 -135 163 -172 215 -205 286 -64 138 -10
289 115 324 42 11 131 13 221 4 l62 -7 36 -66 c206 -379 361 -599 505 -717 40
-33 136 -107 213 -164 623 -464 854 -851 1035 -1734 16 -76 31 -141 34 -144 3
-3 6 141 6 320 0 496 -33 740 -132 984 -63 154 -243 441 -397 633 -116 144
-175 234 -208 313 -23 54 -27 78 -27 163 0 93 3 107 41 205 94 241 114 321
114 446 0 120 -22 188 -131 409 -55 110 -108 229 -117 265 -20 73 -22 220 -9
550 8 180 7 202 -13 282 -22 94 -70 229 -133 373 -44 103 -43 102 43 -25 75
-112 198 -240 254 -264 36 -16 51 -36 152 -204 367 -615 751 -1418 923 -1931
95 -286 148 -557 163 -831 l2 -45 36 70 c87 168 155 389 184 599 27 194 17
568 -20 793 -38 225 -88 436 -131 546 -5 14 14 7 81 -27 182 -94 258 -76 240
57 -3 27 -2 47 2 45 4 -2 37 -18 72 -37 35 -18 114 -52 175 -76 107 -42 170
-59 378 -105 110 -24 209 -69 226 -102 7 -13 24 -59 38 -103 77 -235 149 -326
355 -450 155 -94 212 -144 228 -199 9 -35 4 -66 -44 -266 -119 -493 -157 -738
-158 -1005 -1 -334 66 -548 220 -704 28 -29 28 -30 -1 57 -36 105 -50 217 -43
346 9 170 43 287 185 651 166 423 226 728 238 1200 12 429 -35 815 -146 1215
-20 74 -56 203 -79 285 -94 339 -251 649 -524 1038 -278 398 -615 722 -1052
1014 -418 279 -924 521 -1479 707 -353 119 -671 199 -1281 322 -311 63 -445
97 -611 155 -256 90 -492 210 -758 387 -183 122 -183 111 4 137 369 51 840
-50 1294 -277 49 -25 77 -34 73 -25 -27 70 -51 234 -51 347 0 143 12 194 81
370 38 96 46 129 51 202 13 230 -87 445 -286 612 -104 87 -199 185 -211 218
-6 15 -8 56 -4 91 3 35 2 71 -3 79 -14 25 -102 88 -179 129 -62 33 -186 81
-380 147 -50 17 -56 21 -35 25 105 22 214 51 261 69 l57 22 -43 53 c-73 89
-99 154 -103 255 -5 108 10 158 113 383 40 88 76 176 79 195 4 23 -1 64 -14
110 -42 155 -46 193 -26 257 21 68 69 149 134 230 25 32 61 77 80 101 l34 42
-43 -2 c-24 0 -60 -3 -79 -4z m-1134 -5799 c44 -29 150 -117 235 -195 85 -79
204 -185 264 -235 61 -51 126 -110 145 -131 37 -41 74 -122 108 -234 168 -557
279 -882 464 -1363 33 -87 59 -160 56 -162 -2 -2 -49 14 -103 36 -182 73 -449
150 -640 184 -169 31 -167 31 -720 76 -226 18 -395 54 -542 114 -161 65 -259
130 -452 299 -57 50 -134 116 -171 147 l-68 56 97 47 c641 317 1067 852 1147
1438 l6 46 47 -35 c25 -20 82 -59 127 -88z m-2530 -1595 c44 -5 131 -11 192
-12 62 0 113 -1 113 -2 1 -1 5 -273 9 -606 7 -547 10 -618 29 -745 39 -252 89
-453 178 -714 41 -120 64 -180 118 -305 l16 -39 -48 28 c-122 71 -258 181
-339 276 -66 77 -138 220 -155 306 -16 85 -6 268 20 368 72 276 76 301 74 480
-2 270 -40 439 -148 661 -67 138 -114 199 -219 284 -30 25 -55 48 -56 51 0 3
30 0 68 -7 37 -7 103 -18 148 -24z m704 -41 c156 -117 300 -289 384 -457 l37
-73 -78 62 c-42 34 -118 88 -168 121 -145 97 -252 212 -305 331 -27 59 -25 75
8 79 33 5 30 6 122 -63z m-75 -2457 c69 -17 69 -17 103 -77 18 -33 47 -84 63
-112 l30 -52 -83 37 c-168 74 -332 191 -313 221 10 17 97 9 200 -17z"/>
</g>
</svg>
