<?xml version="1.0" standalone="no"?>
<!DOCTYPE svg PUBLIC "-//W3C//DTD SVG 20010904//EN"
 "http://www.w3.org/TR/2001/REC-SVG-20010904/DTD/svg10.dtd">
<svg version="1.0" xmlns="http://www.w3.org/2000/svg"
 width="1280.000000pt" height="848.000000pt" viewBox="0 0 1280.000000 848.000000"
 preserveAspectRatio="xMidYMid meet">
<g transform="translate(0.000000,848.000000) scale(0.100000,-0.100000)"
fill="#000000" stroke="none">
<path d="M10 8465 c-26 -32 13 -81 48 -59 34 22 22 74 -18 74 -10 0 -23 -7
-30 -15z"/>
<path d="M7638 7268 c-16 -46 -25 -49 -100 -34 -32 7 -37 5 -44 -16 -5 -12 -7
-69 -6 -124 l2 -102 -45 -11 c-37 -9 -52 -21 -86 -67 l-42 -55 22 -46 22 -46
-22 -23 c-30 -32 -49 -88 -49 -144 0 -42 -3 -48 -48 -84 -44 -34 -75 -82 -139
-214 0 -2 -17 1 -37 6 -42 12 -40 0 4 -18 16 -7 30 -16 30 -20 0 -4 -43 -27
-95 -51 l-95 -43 0 -41 c0 -39 -4 -45 -64 -93 -47 -38 -68 -63 -81 -96 -16
-41 -21 -45 -67 -56 -47 -12 -51 -15 -80 -75 -30 -61 -71 -95 -113 -95 -8 0
-15 -4 -15 -10 0 -5 -13 -16 -29 -25 -22 -11 -31 -24 -36 -54 -6 -35 -17 -48
-85 -103 -60 -49 -84 -76 -105 -119 -20 -40 -40 -64 -76 -89 -38 -26 -49 -39
-49 -60 0 -69 -10 -87 -59 -105 -115 -42 -116 -43 -264 -229 -168 -212 -236
-306 -279 -384 -17 -31 -50 -76 -72 -100 l-41 -43 29 -24 c16 -13 53 -35 82
-49 95 -47 269 -34 554 40 74 19 169 37 210 39 41 3 71 3 65 1 -25 -12 -400
-127 -485 -150 -52 -14 -156 -32 -231 -40 l-137 -16 -88 29 c-49 15 -186 70
-304 121 -194 83 -318 132 -705 277 -151 57 -415 131 -845 238 l-335 83 -325
16 c-392 20 -358 20 -356 -1 1 -17 -23 -19 -324 -26 l-325 -7 -190 -41 c-104
-22 -200 -43 -213 -46 -17 -4 -20 -8 -12 -18 9 -11 -38 -33 -225 -106 l-236
-93 -55 -68 c-30 -38 -62 -85 -71 -105 -14 -36 -14 -39 17 -104 33 -66 35 -68
236 -216 112 -81 203 -151 203 -155 1 -4 -22 -4 -51 -1 -33 4 -49 3 -45 -4 4
-5 38 -13 76 -16 l69 -6 224 -150 c201 -136 231 -160 308 -246 79 -88 87 -95
122 -95 37 0 52 -14 26 -23 -7 -2 -11 -7 -8 -9 5 -6 468 -229 590 -285 41 -19
173 -89 292 -155 l217 -120 106 35 c58 20 105 33 105 30 0 -27 -79 -115 -179
-198 l-119 -100 -4 -70 -3 -70 -65 -17 c-38 -9 -55 -17 -40 -18 64 -4 65 -11
10 -80 l-52 -65 6 -63 c7 -63 7 -64 -35 -115 -24 -29 -65 -75 -92 -104 -45
-47 -52 -59 -68 -135 -10 -46 -19 -100 -19 -120 l0 -37 -77 -25 -78 -24 78 -1
78 -1 -52 -96 -51 -96 4 -137 c3 -75 9 -144 13 -153 5 -13 1 -20 -16 -27 l-24
-10 23 0 c12 -1 25 -7 27 -13 2 -7 11 -39 20 -71 15 -53 22 -61 89 -111 40
-30 82 -65 93 -79 12 -16 41 -31 81 -42 54 -15 70 -16 121 -5 47 10 73 10 128
0 l68 -12 90 54 c224 136 242 143 475 193 339 72 275 24 1016 770 335 336 664
669 731 738 67 70 125 127 130 127 4 0 19 -9 32 -19 l24 -18 -23 -67 c-13 -39
-19 -77 -16 -92 4 -14 0 -37 -9 -55 -15 -27 -15 -40 -1 -135 12 -79 22 -114
43 -144 l26 -41 -14 -97 c-14 -96 -14 -98 14 -206 l29 -109 -19 -50 -19 -50
42 -115 c41 -114 42 -116 88 -140 l46 -24 0 -79 c0 -77 1 -80 60 -188 59 -106
62 -110 110 -127 28 -10 50 -22 50 -27 0 -4 4 -6 8 -3 15 9 29 -9 44 -54 l15
-45 89 -13 c84 -12 94 -12 169 10 44 12 118 43 165 69 47 26 120 57 162 70
l77 22 82 96 82 97 59 199 c33 110 74 270 92 356 29 137 37 162 67 201 29 38
41 70 69 191 42 176 46 179 135 134 33 -16 101 -55 150 -87 76 -48 107 -61
200 -83 61 -15 130 -28 155 -29 l45 -3 -41 -27 c-37 -24 -46 -39 -87 -140 -43
-106 -44 -115 -30 -137 16 -25 15 -26 -29 -52 -14 -7 -18 -23 -18 -70 0 -55 3
-63 30 -87 17 -15 30 -30 30 -34 0 -4 -25 -22 -55 -40 l-55 -33 0 -85 c0 -83
1 -87 31 -116 29 -28 30 -31 24 -89 -6 -60 -6 -60 32 -96 21 -20 55 -42 75
-48 45 -15 127 -81 187 -151 l44 -52 -44 -45 -44 -46 49 37 c64 47 72 40 92
-89 12 -79 21 -110 49 -155 19 -32 45 -64 58 -73 12 -8 35 -26 50 -41 l28 -26
-21 -38 c-22 -37 -22 -37 -1 -13 12 13 23 22 25 20 3 -2 14 -27 25 -56 50
-127 138 -200 308 -257 l79 -26 59 25 c32 15 78 44 103 66 25 21 48 39 53 39
4 0 21 -11 37 -25 17 -14 33 -25 37 -25 4 0 67 56 139 124 l131 124 119 256
c66 141 122 259 125 261 4 2 31 -15 60 -37 29 -22 54 -38 56 -36 2 2 9 50 14
107 8 70 25 147 52 235 l42 131 -7 370 c-4 204 -9 390 -12 415 l-6 45 119 58
c65 31 172 78 238 103 167 64 232 69 484 38 l193 -23 57 28 c55 28 57 28 106
14 39 -12 82 -42 197 -139 l147 -124 110 0 c86 0 130 -6 206 -26 53 -14 99
-23 102 -20 3 2 0 29 -7 58 -6 29 -11 116 -11 194 l2 140 -166 232 c-91 127
-165 234 -165 239 1 19 244 164 355 211 287 121 572 313 682 458 40 54 70 82
103 99 33 17 78 58 144 134 l96 110 -22 45 -22 46 32 78 32 79 -13 72 c-12 61
-20 78 -53 112 -74 77 -201 179 -223 179 -12 0 -93 36 -181 80 -122 61 -199
108 -320 198 -169 124 -266 174 -640 331 -92 38 -232 111 -380 197 l-235 136
-300 65 -300 64 -350 9 c-192 5 -370 14 -395 18 -71 14 -142 41 -185 70 -39
27 -41 32 -76 161 -21 74 -42 137 -48 140 -6 4 -54 124 -106 266 -74 201 -112
287 -168 386 l-73 128 -300 234 c-297 234 -299 235 -312 211 -7 -13 -17 -24
-22 -24 -5 0 -107 38 -226 85 -120 47 -223 85 -229 85 -6 0 -18 -19 -27 -42z"/>
</g>
</svg>
