<?xml version="1.0" standalone="no"?>
<!DOCTYPE svg PUBLIC "-//W3C//DTD SVG 20010904//EN"
 "http://www.w3.org/TR/2001/REC-SVG-20010904/DTD/svg10.dtd">
<svg version="1.0" xmlns="http://www.w3.org/2000/svg"
 width="1280.000000pt" height="954.000000pt" viewBox="0 0 1280.000000 954.000000"
 preserveAspectRatio="xMidYMid meet">
<g transform="translate(0.000000,954.000000) scale(0.100000,-0.100000)"
fill="#000000" stroke="none">
<path d="M5410 9534 c0 -2 33 -44 73 -92 160 -192 299 -392 230 -329 -19 16
-155 85 -263 133 -36 16 -101 52 -145 80 -112 72 -157 93 -234 110 -63 13
-161 10 -161 -6 0 -4 47 -51 105 -105 58 -53 103 -100 100 -103 -2 -3 -13 2
-23 11 -53 49 -175 76 -337 77 -125 0 -295 -23 -295 -40 0 -9 121 -53 195 -71
l50 -13 -30 -9 c-17 -5 -149 -9 -295 -9 l-265 1 40 -20 c42 -20 197 -121 193
-124 -2 -1 -68 3 -148 7 -257 16 -550 -2 -550 -33 0 -5 20 -9 43 -9 54 0 183
-32 234 -58 l38 -20 -35 -6 c-19 -3 -125 -10 -235 -16 -110 -6 -222 -13 -248
-16 l-48 -6 88 -50 c48 -27 91 -52 95 -56 4 -4 -88 -7 -205 -7 -184 0 -219 -3
-267 -19 l-55 -20 80 -16 c147 -29 134 -36 -82 -44 -109 -4 -214 -11 -233 -15
-40 -9 -44 -7 80 -35 36 -8 83 -21 105 -29 l40 -15 -40 -7 c-76 -14 -287 -65
-393 -96 -598 -172 -942 -402 -1098 -734 -59 -127 -76 -198 -81 -355 -6 -155
5 -236 97 -765 11 -67 38 -200 50 -250 5 -22 16 -70 25 -107 33 -148 48 -207
76 -308 154 -545 353 -931 571 -1107 46 -36 48 -40 48 -88 0 -82 -6 -83 -101
-33 -46 24 -187 101 -314 172 -126 71 -315 176 -420 234 -368 204 -611 346
-738 431 -198 133 -205 136 -317 136 -85 0 -101 -3 -148 -28 -188 -99 -273
-338 -258 -727 10 -286 62 -556 202 -1056 309 -1105 419 -1431 538 -1585 45
-60 112 -94 164 -84 109 20 232 124 466 395 172 200 287 317 401 409 179 144
394 262 605 331 104 35 229 63 238 55 2 -1 -51 -26 -118 -55 -479 -210 -769
-539 -857 -972 -24 -117 -24 -417 0 -510 94 -373 356 -622 809 -772 484 -161
1074 -193 2133 -116 676 48 1525 148 2190 255 50 8 98 15 108 15 12 0 -24 -47
-109 -142 -206 -231 -622 -736 -864 -1048 l-35 -45 45 26 c98 57 351 158 700
279 806 281 1125 420 1370 598 160 117 315 255 550 492 l245 247 140 43 c433
131 950 344 1340 552 410 219 696 415 970 663 384 348 698 566 1094 757 227
110 323 167 394 236 84 81 98 133 47 175 -16 14 -39 28 -50 32 -17 5 -20 15
-20 64 0 82 -25 116 -120 163 -50 25 -120 48 -207 68 -370 83 -698 287 -870
540 -143 211 -570 602 -959 877 -127 90 -160 132 -439 553 -241 364 -378 552
-531 729 -190 220 -367 385 -597 555 l-109 79 -80 161 c-94 188 -175 338 -266
491 -69 116 -183 288 -187 283 -2 -2 12 -66 31 -143 18 -77 33 -144 34 -148 0
-4 -50 67 -110 158 -61 90 -146 209 -189 262 -92 115 -186 209 -177 177 4 -12
67 -156 140 -320 74 -165 133 -301 131 -303 -2 -2 -50 39 -107 91 -279 254
-595 518 -835 700 -202 152 -343 252 -343 243 0 -3 89 -135 198 -293 269 -389
269 -389 247 -372 -11 8 -49 39 -84 69 -270 225 -647 461 -967 604 -160 71
-374 151 -373 139 0 -4 46 -45 102 -91 150 -123 405 -345 401 -350 -2 -2 -88
36 -191 84 -418 196 -833 375 -833 359z m-2920 -4844 c8 -5 11 -10 5 -10 -5 0
-17 5 -25 10 -8 5 -10 10 -5 10 6 0 17 -5 25 -10z m57 -16 c-3 -3 -12 -4 -19
-1 -8 3 -5 6 6 6 11 1 17 -2 13 -5z m46 -11 c-7 -2 -19 -2 -25 0 -7 3 -2 5 12
5 14 0 19 -2 13 -5z m-168 -33 c13 -6 15 -9 5 -9 -8 0 -22 4 -30 9 -18 12 -2
12 25 0z m255 4 c0 -14 -76 -34 -127 -33 l-58 2 70 6 c39 4 79 12 90 19 23 13
25 14 25 6z m-193 -20 c-3 -3 -12 -4 -19 -1 -8 3 -5 6 6 6 11 1 17 -2 13 -5z"/>
</g>
</svg>
