<?xml version="1.0" standalone="no"?>
<!DOCTYPE svg PUBLIC "-//W3C//DTD SVG 20010904//EN"
 "http://www.w3.org/TR/2001/REC-SVG-20010904/DTD/svg10.dtd">
<svg version="1.0" xmlns="http://www.w3.org/2000/svg"
 width="1280.000000pt" height="714.000000pt" viewBox="0 0 1280.000000 714.000000"
 preserveAspectRatio="xMidYMid meet">
<g transform="translate(0.000000,714.000000) scale(0.100000,-0.100000)"
fill="#000000" stroke="none">
<path d="M6124 7126 c-93 -18 -174 -42 -240 -71 -49 -22 -57 -30 -78 -77 -28
-64 -43 -151 -51 -313 -4 -66 -13 -143 -21 -171 -16 -59 -69 -124 -168 -204
-85 -69 -105 -99 -127 -189 -16 -64 -18 -97 -13 -211 7 -153 0 -193 -48 -270
-38 -61 -111 -101 -283 -155 -158 -49 -247 -89 -490 -218 -184 -97 -218 -119
-276 -178 -91 -91 -159 -234 -159 -337 0 -18 -7 -49 -16 -70 -9 -20 -20 -65
-25 -100 -5 -35 -15 -75 -23 -90 -7 -15 -21 -74 -31 -132 -20 -124 -28 -140
-111 -242 -67 -82 -67 -83 -64 -135 1 -17 -4 -41 -10 -52 -15 -30 -73 -28
-258 9 -234 47 -411 115 -657 255 -22 13 -123 67 -225 121 -102 53 -222 117
-267 141 -46 24 -107 52 -135 63 -29 10 -123 50 -208 90 -185 86 -393 176
-549 236 -129 50 -245 112 -659 352 -158 92 -338 194 -400 227 -61 33 -112 66
-112 73 0 6 -5 12 -11 12 -6 0 -61 22 -123 49 -135 60 -185 69 -245 45 l-44
-17 6 -141 c6 -158 30 -271 78 -373 35 -74 77 -107 249 -198 171 -91 223 -144
257 -263 13 -46 17 -108 17 -322 2 -342 12 -379 128 -481 92 -81 121 -140 126
-254 5 -112 20 -135 130 -198 43 -25 93 -62 111 -83 40 -45 37 -64 -24 -154
-77 -114 -82 -157 -35 -290 17 -46 30 -91 30 -100 0 -33 -78 -82 -224 -140
-33 -13 -79 -42 -103 -65 -40 -39 -43 -45 -43 -96 0 -30 9 -88 20 -129 25 -97
25 -144 0 -180 -12 -16 -73 -71 -138 -123 -64 -52 -126 -104 -137 -117 -30
-33 -26 -132 8 -238 15 -46 27 -98 27 -116 0 -45 -41 -105 -156 -226 -159
-167 -194 -232 -194 -356 0 -62 2 -68 34 -100 33 -33 37 -34 112 -34 231 0
458 93 1089 445 318 177 652 348 850 435 66 29 185 83 265 120 267 125 1012
360 1143 360 45 0 102 -36 165 -104 63 -68 59 -90 -32 -185 -40 -42 -78 -86
-85 -98 -19 -37 -12 -88 19 -144 77 -138 77 -158 -10 -253 -68 -75 -77 -90
-80 -131 -4 -57 0 -64 70 -120 39 -31 70 -60 70 -66 0 -5 -24 -24 -53 -43 -29
-19 -59 -41 -66 -50 -19 -23 -25 -86 -11 -135 l11 -44 93 5 c63 3 107 11 137
25 24 11 58 25 74 31 17 5 95 40 174 77 186 86 469 199 577 230 117 34 187 73
333 189 36 28 73 56 83 61 9 6 36 23 58 39 22 16 43 26 46 23 11 -11 -16 -45
-71 -86 -56 -42 -75 -72 -75 -115 0 -21 11 -26 128 -55 70 -17 174 -38 232
-47 188 -29 388 -7 473 51 15 10 34 7 110 -17 146 -47 379 -104 542 -133 185
-32 341 -64 372 -76 37 -14 14 -43 -65 -79 -192 -89 -194 -92 -199 -217 -4
-103 3 -117 68 -136 l44 -13 -1 -55 c-2 -92 -65 -193 -143 -227 -25 -12 -72
-32 -105 -46 -55 -24 -58 -27 -51 -53 22 -91 195 -163 356 -150 45 4 121 24
217 56 184 63 253 79 582 136 280 48 458 91 630 150 127 44 375 160 410 191
14 12 59 46 100 76 77 54 120 98 298 300 l103 117 97 21 c535 119 1077 288
1322 410 42 21 96 43 120 50 55 15 112 43 129 64 8 9 24 16 38 16 13 0 38 7
55 16 22 11 45 14 74 10 51 -7 141 20 229 69 64 36 235 162 346 257 117 99
242 178 557 354 114 64 221 128 237 143 17 16 48 40 70 54 22 15 59 50 82 79
173 217 226 298 272 416 l21 53 -26 9 c-14 6 -56 15 -94 21 -99 17 -100 18
-57 83 42 63 46 96 17 134 -12 15 -109 116 -216 224 -263 265 -694 620 -998
822 -280 185 -664 383 -1092 561 -190 79 -504 195 -530 195 -10 0 -30 6 -44
13 -14 7 -63 21 -110 31 -47 10 -146 33 -220 51 -391 97 -791 153 -1200 170
-247 10 -241 8 -275 63 -91 144 -557 730 -661 832 -42 41 -91 90 -108 109 -17
18 -58 61 -92 95 -33 33 -79 88 -101 121 -22 33 -61 83 -87 111 -25 29 -46 56
-46 62 0 5 -16 22 -35 36 -19 15 -44 44 -54 64 -11 20 -61 81 -113 135 -85 88
-101 100 -163 123 -87 32 -262 41 -371 20z"/>
</g>
</svg>
