<?xml version="1.0" standalone="no"?>
<!DOCTYPE svg PUBLIC "-//W3C//DTD SVG 20010904//EN"
 "http://www.w3.org/TR/2001/REC-SVG-20010904/DTD/svg10.dtd">
<svg version="1.0" xmlns="http://www.w3.org/2000/svg"
 width="1280.000000pt" height="1050.000000pt" viewBox="0 0 1280.000000 1050.000000"
 preserveAspectRatio="xMidYMid meet">
<g transform="translate(0.000000,1050.000000) scale(0.100000,-0.100000)"
fill="#000000" stroke="none">
<path d="M5780 10110 l-425 -388 -65 -7 c-36 -3 -76 -7 -89 -8 -22 -2 -27 11
-117 343 -52 190 -98 358 -102 375 -7 26 -22 -4 -142 -283 l-133 -312 -17 28
c-9 15 -72 125 -140 245 -113 197 -125 215 -132 190 -3 -15 -30 -188 -59 -383
-28 -195 -55 -359 -59 -363 -4 -5 -111 143 -238 328 l-230 336 -6 -63 c-4 -35
-17 -227 -31 -426 -13 -200 -25 -365 -27 -366 -2 -1 -67 -30 -146 -63 l-143
-61 -67 97 c-37 53 -152 222 -257 374 -184 268 -190 276 -197 244 -4 -17 -21
-255 -38 -527 -18 -272 -33 -500 -35 -507 -2 -6 -39 -35 -82 -64 -43 -28 -108
-74 -146 -101 -37 -28 -73 -48 -80 -45 -6 2 -147 125 -312 272 -165 147 -301
263 -303 257 -1 -5 34 -215 78 -467 l80 -458 -135 -138 c-75 -76 -137 -140
-140 -141 -2 -2 -135 83 -296 187 -160 105 -294 191 -298 193 -4 1 54 -178
127 -398 74 -221 132 -404 128 -407 -5 -5 -340 200 -488 299 -31 21 -59 38
-61 38 -2 0 29 -95 70 -211 41 -116 73 -212 71 -214 -2 -3 -125 43 -273 100
-148 58 -270 104 -271 102 -1 -1 110 -193 247 -426 137 -233 248 -425 247
-426 -2 -1 -214 13 -473 31 -259 19 -473 32 -476 31 -3 -1 156 -148 353 -327
198 -179 364 -330 369 -337 7 -7 -1 -49 -22 -125 -18 -62 -33 -114 -33 -115
-1 -1 -131 16 -291 38 -159 21 -294 39 -298 39 -5 0 103 -115 240 -256 244
-252 248 -257 248 -298 -1 -45 -25 -273 -31 -295 -3 -11 -19 -12 -72 -8 -147
14 -562 20 -562 9 0 -6 139 -129 310 -273 268 -227 310 -267 310 -291 0 -22
-6 -29 -33 -36 -17 -5 -123 -33 -234 -63 -112 -29 -203 -56 -203 -59 1 -3 112
-52 248 -109 136 -57 249 -106 251 -107 5 -5 39 -238 35 -245 -2 -4 -123 -91
-269 -194 -146 -104 -264 -190 -262 -191 3 -4 537 -34 595 -34 17 0 32 -4 32
-8 0 -5 -119 -150 -264 -323 -146 -172 -264 -315 -262 -316 1 -1 154 29 340
67 186 39 344 70 350 70 6 0 24 -33 40 -73 84 -211 282 -579 436 -807 550
-819 1335 -1458 2269 -1846 741 -309 1591 -454 2376 -404 760 48 1441 230
2102 561 l174 87 537 -179 c295 -98 538 -179 539 -179 1 0 -97 151 -218 335
-120 185 -219 338 -219 340 0 2 114 -63 253 -145 138 -81 253 -147 255 -145 2
1 -42 117 -97 256 -146 373 -140 357 -127 367 6 6 87 0 201 -14 406 -49 1295
-154 1307 -154 7 0 -182 195 -421 434 l-434 434 57 79 c31 43 62 85 69 94 7 9
39 20 77 25 l65 10 -30 16 c-61 35 -60 33 -29 74 15 22 29 40 29 41 1 2 159
-65 351 -148 1136 -491 1785 -709 2112 -709 121 0 182 33 182 100 0 43 -54
140 -147 266 -211 283 -258 372 -275 515 -18 163 -43 243 -127 419 -100 206
-111 245 -118 400 -7 162 7 226 86 402 81 179 95 245 88 418 -7 169 -21 220
-106 395 -103 212 -121 278 -121 455 0 123 18 204 78 354 75 187 86 238 85
401 -1 171 -21 258 -90 384 -25 47 -61 114 -80 148 -52 95 -75 197 -75 338 -1
147 11 200 91 384 77 178 80 190 91 366 12 214 21 237 257 696 105 203 115
279 41 310 -160 66 -806 -314 -1833 -1080 -126 -94 -237 -171 -246 -171 -12 0
-31 26 -58 77 l-40 76 263 331 c145 182 309 387 364 456 55 69 99 126 99 127
-1 0 -263 -59 -581 -133 l-580 -135 -25 33 c-26 33 -153 179 -252 290 l-51 57
202 296 c111 163 200 298 198 299 -1 2 -145 -41 -318 -96 -173 -54 -350 -109
-393 -122 l-77 -24 -43 35 c-23 20 -95 76 -160 125 -87 66 -117 94 -113 106 3
9 30 105 60 212 30 107 82 291 115 409 34 118 60 215 58 216 -1 1 -168 -119
-372 -266 -203 -148 -372 -269 -376 -269 -4 0 -65 30 -137 68 l-130 67 179
395 c99 217 179 397 179 401 0 4 -234 -115 -520 -262 l-520 -269 -137 39 c-76
21 -184 49 -241 62 -100 23 -103 24 -97 49 12 62 105 633 102 636 -1 1 -146
-128 -322 -287 -297 -271 -321 -290 -349 -285 -17 3 -73 8 -123 12 -83 6 -93
9 -93 26 0 10 27 181 60 378 33 197 60 364 60 369 0 6 -6 11 -12 10 -7 0 -204
-175 -438 -389z"/>
</g>
</svg>
