<?xml version="1.0" standalone="no"?>
<!DOCTYPE svg PUBLIC "-//W3C//DTD SVG 20010904//EN"
 "http://www.w3.org/TR/2001/REC-SVG-20010904/DTD/svg10.dtd">
<svg version="1.0" xmlns="http://www.w3.org/2000/svg"
 width="1280.000000pt" height="955.000000pt" viewBox="0 0 1280.000000 955.000000"
 preserveAspectRatio="xMidYMid meet">
<g transform="translate(0.000000,955.000000) scale(0.100000,-0.100000)"
fill="#000000" stroke="none">
<path d="M3002 8910 c-40 -4 -80 -11 -90 -15 -9 -4 -35 -11 -57 -16 -22 -4
-87 -27 -145 -50 -89 -37 -114 -52 -162 -102 -40 -40 -58 -66 -58 -83 0 -14
-7 -32 -15 -40 -8 -9 -15 -24 -15 -34 0 -11 -7 -23 -16 -28 -11 -6 -15 -17
-11 -31 3 -12 0 -24 -7 -29 -23 -13 -113 -187 -120 -228 -8 -56 2 -104 23
-105 9 -1 0 -5 -19 -8 -24 -5 -57 0 -105 16 -38 12 -119 38 -180 57 -60 19
-137 46 -170 60 -33 14 -70 26 -81 26 -33 0 -68 -43 -99 -121 -26 -66 -28 -83
-28 -208 -1 -188 27 -297 96 -386 22 -27 43 -51 47 -53 5 -2 32 9 61 24 35 17
93 67 168 141 115 116 183 169 256 199 l40 16 -21 -23 c-12 -13 -24 -42 -27
-64 -19 -134 -19 -141 -2 -185 16 -46 39 -121 54 -177 14 -54 84 -183 117
-217 23 -24 56 -41 118 -61 79 -26 95 -27 184 -22 141 9 327 72 492 167 58 34
77 39 175 49 161 17 224 30 281 56 65 29 188 111 281 188 83 68 160 97 258 97
82 0 95 6 95 40 0 20 6 31 20 35 11 3 20 12 20 19 0 17 -38 65 -70 90 -48 38
-102 101 -128 151 -25 46 -27 60 -28 176 -1 149 -8 166 -97 235 -31 25 -66 62
-76 83 -11 21 -27 44 -36 51 -10 8 -34 40 -56 71 -84 125 -190 176 -444 218
-141 23 -320 32 -423 21z"/>
<path d="M6475 8100 c-49 -4 -103 -13 -118 -19 -16 -6 -44 -11 -63 -11 -19 0
-55 -11 -80 -25 -25 -14 -50 -25 -56 -25 -6 0 -45 -12 -87 -27 -61 -23 -88
-40 -143 -92 -55 -53 -68 -71 -68 -96 0 -19 -7 -35 -20 -43 -11 -7 -20 -23
-20 -37 0 -14 -8 -29 -20 -35 -15 -8 -19 -17 -14 -35 4 -17 1 -27 -9 -31 -9
-3 -26 -26 -37 -50 -12 -24 -26 -44 -31 -44 -5 0 -9 -6 -9 -13 0 -7 -11 -29
-25 -48 -57 -76 -71 -227 -21 -230 11 -1 3 -5 -19 -10 -33 -7 -56 -3 -125 21
-47 16 -139 45 -205 66 -66 20 -145 50 -175 65 -90 44 -135 53 -169 33 -48
-28 -93 -119 -117 -238 -9 -47 -10 -74 -3 -87 6 -13 6 -25 -1 -38 -23 -44 -3
-227 39 -346 17 -49 96 -165 112 -165 5 0 34 10 66 22 46 17 80 42 159 117
176 167 304 260 379 276 l30 6 -27 -21 c-22 -17 -28 -30 -28 -61 0 -22 -5 -50
-12 -62 -20 -38 -14 -157 11 -202 11 -22 21 -52 21 -68 0 -15 6 -40 14 -55 7
-15 16 -42 20 -61 8 -43 61 -153 100 -210 36 -50 95 -84 201 -113 186 -52 467
10 785 173 73 38 79 39 225 49 163 10 243 26 327 63 65 29 234 138 338 217 62
48 87 60 147 74 40 9 107 16 150 16 84 0 103 9 103 46 0 12 11 29 25 38 25 16
25 17 9 49 -9 18 -52 65 -95 105 -61 57 -86 89 -114 145 -39 80 -44 128 -31
272 7 77 7 81 -21 121 -15 23 -56 65 -90 93 -35 28 -70 66 -79 84 -9 17 -33
52 -54 77 -20 25 -46 61 -58 81 -12 20 -44 57 -71 82 -130 121 -357 182 -791
211 -36 2 -105 1 -155 -4z"/>
<path d="M10115 6724 c-33 -8 -82 -17 -109 -20 -26 -3 -69 -15 -95 -28 -25
-13 -77 -33 -116 -45 -111 -36 -152 -60 -215 -124 -45 -45 -60 -67 -60 -89 0
-18 -9 -36 -25 -50 -14 -12 -25 -31 -25 -43 0 -12 -9 -30 -20 -40 -11 -10 -20
-30 -20 -45 0 -16 -7 -30 -15 -33 -8 -4 -21 -21 -28 -39 -8 -19 -21 -41 -29
-49 -9 -8 -23 -31 -33 -49 -10 -19 -28 -48 -40 -65 -52 -69 -55 -213 -5 -225
20 -5 15 -8 -26 -14 -44 -6 -63 -3 -130 22 -44 16 -140 49 -214 72 -74 24
-172 60 -217 82 -45 21 -104 41 -131 45 -46 5 -51 3 -83 -29 -35 -35 -91 -160
-104 -233 -18 -99 -20 -324 -4 -400 25 -117 51 -184 101 -251 58 -80 65 -81
162 -36 45 21 88 55 164 130 56 56 107 102 112 102 5 0 36 24 68 53 88 78 262
170 262 138 0 -5 -9 -13 -20 -16 -25 -8 -42 -38 -34 -60 4 -9 -2 -37 -12 -63
-27 -68 -25 -184 4 -237 12 -22 22 -51 22 -65 0 -45 63 -224 108 -310 64 -118
113 -154 280 -201 193 -54 505 12 840 179 90 46 105 50 213 61 63 6 136 11
163 11 170 0 381 99 652 307 88 67 180 94 317 93 103 0 130 10 125 48 -2 21 3
30 25 40 51 25 27 71 -92 180 -67 60 -88 87 -122 156 -36 73 -41 92 -42 157
-1 41 2 112 6 159 8 84 8 86 -22 130 -16 25 -61 71 -100 102 -43 35 -79 74
-92 100 -12 24 -31 54 -44 68 -12 14 -45 57 -71 96 -107 157 -244 232 -531
290 -224 45 -585 65 -698 38z"/>
<path d="M3988 6450 c-43 -5 -86 -14 -97 -20 -11 -5 -32 -10 -46 -10 -15 0
-39 -7 -53 -15 -15 -8 -62 -28 -105 -46 -93 -37 -177 -113 -177 -159 0 -15 -7
-33 -15 -40 -8 -7 -15 -20 -15 -30 0 -10 -7 -23 -15 -30 -8 -7 -15 -23 -15
-36 0 -13 -3 -24 -7 -24 -5 0 -13 -10 -19 -23 -6 -12 -27 -51 -46 -87 -19 -36
-38 -81 -42 -101 -9 -49 3 -99 23 -100 9 -1 2 -6 -16 -11 -26 -9 -44 -7 -90
10 -32 11 -105 35 -163 53 -58 17 -125 42 -150 54 -108 54 -144 41 -185 -64
-35 -91 -45 -285 -20 -388 24 -98 51 -163 89 -207 l34 -40 43 17 c32 12 77 50
159 133 115 117 228 204 264 204 19 0 19 -1 2 -13 -10 -7 -20 -29 -22 -48 -16
-145 -16 -167 -1 -200 8 -19 25 -68 37 -109 24 -85 78 -201 111 -244 25 -31
80 -58 171 -81 116 -31 302 11 499 110 52 27 110 56 129 66 22 11 77 21 150
28 63 5 143 18 176 29 72 22 196 101 308 194 87 73 153 98 259 98 57 0 82 15
71 43 -3 10 2 18 15 22 40 12 18 53 -70 133 -32 30 -70 77 -89 114 -33 61 -34
66 -35 184 -1 137 -3 143 -94 215 -27 22 -53 49 -56 60 -4 11 -23 39 -43 63
-20 23 -51 63 -68 88 -37 53 -102 100 -183 133 -68 28 -260 66 -351 70 -36 1
-90 5 -120 8 -30 3 -90 1 -132 -3z"/>
<path d="M6775 5648 c-22 -3 -65 -10 -95 -15 -30 -5 -65 -15 -78 -22 -13 -7
-55 -22 -95 -35 -40 -13 -83 -29 -97 -37 -44 -26 -120 -111 -120 -134 0 -12
-7 -28 -15 -35 -8 -7 -15 -20 -15 -30 0 -9 -9 -25 -19 -34 -11 -10 -17 -24
-14 -32 3 -8 -2 -23 -11 -32 -24 -25 -76 -105 -76 -118 0 -6 -7 -17 -15 -24
-42 -35 -55 -189 -16 -191 9 -1 0 -5 -19 -9 -28 -7 -51 -2 -120 25 -47 18 -96
36 -110 40 -45 13 -152 56 -210 86 -93 47 -114 48 -153 7 -44 -49 -79 -145
-81 -228 -1 -36 -6 -71 -10 -78 -15 -24 6 -208 33 -301 11 -36 82 -151 93
-151 4 0 32 9 62 20 40 15 75 41 134 98 140 136 249 216 322 237 l25 7 -21
-23 c-35 -38 -55 -219 -31 -278 8 -20 24 -76 36 -126 24 -98 67 -200 107 -253
29 -38 99 -72 194 -97 139 -36 365 13 601 131 86 43 88 43 240 53 85 6 172 15
194 22 84 24 263 129 369 217 38 32 63 43 128 57 50 11 98 15 125 11 54 -7 83
6 83 39 0 15 7 26 20 30 38 12 22 45 -71 141 -106 110 -138 204 -118 350 13
101 2 130 -74 200 -29 26 -65 69 -82 94 -130 203 -148 224 -227 276 -144 93
-582 174 -773 142z"/>
<path d="M5072 3940 c-40 -5 -80 -11 -90 -15 -9 -4 -35 -11 -57 -16 -22 -4
-87 -27 -145 -51 -87 -35 -114 -52 -157 -96 -33 -33 -53 -62 -53 -76 0 -13 -7
-29 -15 -36 -8 -7 -15 -20 -15 -30 0 -10 -7 -23 -15 -30 -9 -7 -13 -21 -10
-31 4 -11 2 -19 -5 -19 -6 0 -14 -8 -17 -17 -4 -9 -26 -48 -49 -85 -57 -94
-70 -199 -26 -211 10 -3 -4 -5 -29 -6 -25 0 -65 5 -90 13 -24 8 -93 28 -154
45 -60 17 -137 42 -170 56 -33 13 -72 25 -86 25 -119 1 -171 -364 -82 -579 8
-20 31 -56 51 -81 20 -25 37 -47 38 -49 2 -1 27 8 56 22 36 17 91 62 171 139
108 105 221 188 256 188 12 0 12 -3 -1 -17 -32 -37 -42 -186 -17 -248 9 -22
24 -67 34 -100 24 -80 89 -206 123 -238 30 -29 131 -65 203 -74 117 -14 332
46 519 144 93 49 113 56 195 64 138 15 244 38 300 66 64 33 210 133 269 184
53 47 119 69 231 78 76 6 80 7 83 31 2 13 13 31 23 38 19 13 19 14 1 43 -10
16 -44 50 -77 77 -40 32 -70 67 -94 111 -35 64 -35 66 -33 178 l1 114 -33 37
c-19 20 -52 51 -74 67 -23 17 -45 39 -50 51 -6 11 -28 43 -51 70 -23 27 -57
67 -75 90 -41 48 -145 106 -231 127 -154 39 -415 61 -553 47z"/>
<path d="M8370 3680 c-14 -4 -47 -8 -73 -9 -27 -1 -63 -7 -80 -15 -45 -20 -70
-28 -87 -31 -93 -13 -208 -61 -247 -102 -12 -13 -25 -23 -28 -23 -15 0 -65
-66 -71 -94 -3 -16 -17 -38 -30 -49 -13 -10 -24 -28 -24 -40 0 -12 -9 -28 -20
-35 -13 -8 -20 -23 -20 -42 0 -20 -5 -30 -15 -30 -8 0 -20 -10 -26 -22 -6 -13
-29 -46 -50 -74 -22 -28 -39 -54 -39 -58 0 -4 -11 -19 -25 -34 -14 -15 -31
-45 -37 -67 -6 -22 -15 -44 -18 -50 -4 -5 -4 -32 -1 -60 5 -42 10 -50 31 -56
23 -6 22 -7 -10 -10 -58 -4 -83 1 -135 26 -27 13 -86 36 -130 51 -44 15 -102
37 -130 49 -27 13 -61 26 -75 30 -14 4 -50 23 -81 41 -120 72 -182 80 -231 31
-41 -41 -104 -167 -113 -227 -4 -25 -11 -51 -15 -59 -4 -8 -3 -27 2 -43 7 -20
7 -33 -2 -42 -17 -21 -23 -180 -10 -255 27 -150 56 -220 136 -330 5 -7 140 42
169 62 17 11 64 50 105 87 41 37 95 79 120 95 25 15 62 43 83 62 43 38 209
123 241 123 20 0 19 -2 -5 -23 -18 -15 -29 -36 -33 -66 -4 -24 -13 -56 -22
-72 -27 -52 -29 -147 -5 -207 12 -29 21 -66 21 -81 0 -94 93 -346 155 -419 34
-40 112 -81 224 -116 79 -25 93 -26 205 -21 197 11 428 71 649 171 l77 35 158
1 c188 1 304 16 394 52 91 37 231 114 357 198 82 54 117 71 170 82 108 23 144
26 206 16 76 -12 110 2 110 45 0 24 5 31 23 33 58 9 34 70 -70 176 -57 57 -89
100 -116 155 -35 72 -37 81 -37 176 0 55 6 126 14 157 22 89 7 123 -96 227
-47 47 -91 102 -99 121 -8 19 -32 57 -53 85 -21 27 -46 68 -56 90 -44 93 -185
202 -337 259 -100 38 -335 95 -435 106 -48 5 -104 14 -123 20 -40 12 -303 12
-340 0z"/>
<path d="M2875 2559 c-44 -5 -105 -14 -135 -19 -30 -6 -77 -15 -105 -20 -27
-5 -75 -20 -105 -34 -30 -14 -86 -37 -125 -52 -109 -41 -146 -64 -207 -129
-44 -46 -58 -67 -58 -91 0 -19 -9 -39 -25 -54 -14 -13 -25 -33 -25 -45 0 -12
-9 -30 -20 -40 -14 -12 -18 -25 -14 -42 5 -18 1 -28 -15 -39 -11 -8 -21 -20
-21 -25 0 -9 -33 -65 -78 -135 -47 -73 -69 -157 -58 -216 8 -42 12 -48 35 -48
24 -1 24 -2 7 -11 -24 -15 -122 -7 -166 13 -19 9 -73 26 -120 38 -47 11 -111
30 -143 40 -31 11 -62 20 -67 20 -6 0 -52 18 -104 40 -117 50 -170 53 -208 13
-36 -37 -98 -187 -99 -238 0 -22 -4 -49 -8 -60 -5 -11 -4 -29 1 -40 5 -12 5
-44 1 -75 -9 -57 -2 -153 17 -230 29 -122 55 -181 108 -247 30 -37 58 -68 61
-68 3 0 35 11 71 25 56 21 81 41 177 135 195 192 265 250 373 305 21 11 47 20
57 20 15 0 13 -4 -9 -23 -21 -17 -28 -33 -31 -72 -3 -27 -10 -70 -17 -95 -14
-55 -6 -135 19 -181 10 -19 22 -50 25 -69 25 -119 115 -322 176 -392 39 -47
103 -78 222 -109 87 -22 183 -22 316 2 109 19 308 94 468 174 171 87 186 91
409 111 205 18 320 70 563 253 63 47 130 98 150 113 50 37 176 68 275 68 97 0
121 11 113 51 -5 25 -1 31 24 44 17 9 30 20 30 25 0 23 -56 93 -101 126 -155
114 -229 285 -200 464 19 114 -2 150 -157 278 -29 24 -60 58 -69 75 -9 18 -37
57 -63 87 -26 30 -57 71 -69 91 -44 74 -177 161 -311 203 -108 35 -359 74
-515 80 -71 3 -139 8 -150 10 -11 2 -56 0 -100 -5z"/>
</g>
</svg>
