<?xml version="1.0" standalone="no"?>
<!DOCTYPE svg PUBLIC "-//W3C//DTD SVG 20010904//EN"
 "http://www.w3.org/TR/2001/REC-SVG-20010904/DTD/svg10.dtd">
<svg version="1.0" xmlns="http://www.w3.org/2000/svg"
 width="1280.000000pt" height="640.000000pt" viewBox="0 0 1280.000000 640.000000"
 preserveAspectRatio="xMidYMid meet">
<g transform="translate(0.000000,640.000000) scale(0.100000,-0.100000)"
fill="#000000" stroke="none">
<path d="M65 5521 c-16 -10 -39 -28 -49 -39 -77 -87 152 -637 574 -1377 334
-586 542 -1049 635 -1412 27 -106 34 -276 16 -384 -5 -30 -15 -90 -21 -134 -7
-44 -20 -129 -30 -190 -17 -102 -23 -143 -50 -342 -15 -107 -12 -223 6 -276
20 -59 85 -121 117 -112 117 35 174 84 707 616 487 486 552 539 692 555 103
12 439 -54 564 -110 l51 -23 7 -114 c11 -188 57 -249 186 -249 91 0 163 26
357 126 189 98 187 97 381 58 263 -53 454 -105 484 -131 10 -9 23 -32 29 -52
21 -65 108 -148 204 -195 51 -25 62 -26 205 -26 141 0 161 3 313 39 238 57
305 65 518 58 101 -4 236 -11 299 -17 568 -49 896 -66 1580 -80 278 -5 529
-12 559 -16 l54 -6 -6 -50 c-9 -71 3 -88 61 -88 62 0 111 16 297 95 86 37 163
64 171 61 12 -4 14 -41 14 -212 0 -230 14 -421 37 -504 11 -38 28 -67 54 -94
37 -36 42 -38 89 -34 142 14 389 275 837 885 21 28 29 32 90 38 97 8 253 24
363 36 177 19 265 28 365 39 314 34 527 72 600 107 17 8 60 46 97 84 74 77 80
79 183 54 120 -29 207 -16 550 84 441 128 517 155 529 188 4 9 9 41 12 72 6
52 4 58 -22 84 -39 39 -311 172 -949 462 -33 16 -118 55 -190 87 -124 57 -394
168 -555 228 -41 15 -160 60 -265 100 -579 219 -660 244 -1275 386 -512 118
-712 174 -797 224 -87 50 -186 184 -413 558 -320 527 -410 660 -528 784 -109
114 -181 142 -247 96 -62 -42 -78 -78 -188 -423 -107 -334 -316 -770 -426
-888 -80 -86 -99 -92 -848 -288 -62 -16 -164 -42 -225 -58 -134 -35 -338 -88
-520 -135 -73 -19 -169 -44 -213 -56 -44 -12 -129 -34 -190 -50 -60 -16 -146
-38 -190 -50 -126 -34 -296 -78 -465 -120 -389 -98 -441 -101 -569 -31 -220
119 -237 125 -346 129 -96 4 -102 3 -142 -25 -23 -15 -72 -58 -110 -94 -222
-213 -371 -299 -518 -299 -271 2 -673 299 -1101 815 -289 348 -437 544 -634
840 -206 309 -360 506 -519 665 -143 143 -214 176 -286 131z"/>
</g>
</svg>
