<?xml version="1.0" standalone="no"?>
<!DOCTYPE svg PUBLIC "-//W3C//DTD SVG 20010904//EN"
 "http://www.w3.org/TR/2001/REC-SVG-20010904/DTD/svg10.dtd">
<svg version="1.0" xmlns="http://www.w3.org/2000/svg"
 width="1280.000000pt" height="640.000000pt" viewBox="0 0 1280.000000 640.000000"
 preserveAspectRatio="xMidYMid meet">
<g transform="translate(0.000000,640.000000) scale(0.100000,-0.100000)"
fill="#000000" stroke="none">
<path d="M4471 6106 c-52 -74 -129 -153 -160 -166 -60 -24 -74 -14 -98 79 -12
46 -23 85 -25 86 -2 2 -32 -44 -68 -102 -73 -119 -98 -143 -147 -143 -29 0
-36 5 -49 35 -7 19 -14 53 -14 75 0 22 -4 40 -8 40 -5 0 -52 -116 -105 -257
-100 -266 -110 -306 -223 -848 -19 -88 -20 -90 -49 -93 -17 -2 -93 -19 -170
-37 -77 -19 -178 -43 -225 -53 -47 -11 -177 -58 -290 -104 -171 -71 -235 -103
-385 -196 -116 -73 -214 -125 -275 -149 -52 -20 -140 -55 -195 -78 -70 -29
-155 -53 -280 -80 -303 -64 -580 -150 -1105 -345 -85 -31 -185 -63 -222 -70
-91 -17 -168 -63 -186 -112 -13 -34 -13 -41 5 -75 11 -21 23 -64 27 -97 l8
-58 27 26 c15 14 30 26 34 26 4 0 7 -21 7 -46 l0 -45 30 21 c32 23 34 20 30
-32 -1 -28 13 -38 25 -18 3 6 13 10 22 10 11 0 14 -7 11 -25 -5 -22 -2 -25 21
-23 20 2 25 -1 23 -15 -3 -14 1 -17 16 -13 15 5 38 -13 103 -82 46 -48 104
-111 127 -140 l44 -52 -44 0 c-23 0 -53 -3 -64 -6 -16 -4 -23 0 -28 18 l-7 23
-11 -22 c-16 -34 -36 -36 -52 -5 l-14 27 -11 -27 c-13 -34 -34 -36 -48 -5
l-11 22 -11 -28 c-14 -35 -40 -46 -56 -24 -16 23 -22 21 -21 -5 1 -16 -7 -25
-28 -32 -25 -9 -31 -7 -51 16 -13 15 -25 46 -29 77 -12 88 -8 88 -130 -5 -136
-102 -148 -125 -117 -217 26 -75 28 -77 91 -128 71 -57 134 -92 295 -164 287
-127 480 -163 810 -151 155 6 201 4 325 -15 80 -11 163 -23 185 -26 22 -2 67
-13 100 -23 33 -11 98 -31 145 -46 47 -14 137 -48 200 -74 270 -112 500 -176
740 -205 30 -4 140 -32 245 -62 239 -69 457 -116 508 -107 l37 6 0 -104 0
-103 126 -319 c108 -272 144 -350 246 -535 134 -241 175 -298 233 -318 60 -22
153 -13 177 16 l18 23 73 -54 c83 -63 177 -103 262 -113 49 -5 69 -2 108 15
26 11 47 25 47 30 0 5 12 2 28 -7 22 -12 34 -13 67 -4 64 17 105 47 105 76 0
22 4 25 33 25 49 0 109 39 132 85 15 31 20 61 20 132 l0 91 36 6 c41 7 66 30
78 73 13 44 -3 114 -30 136 -27 22 -20 41 28 72 91 59 82 151 -23 240 l-36 31
41 63 c73 114 63 164 -45 217 -30 15 -53 27 -52 28 2 1 107 -2 233 -6 127 -4
406 -9 620 -10 l390 -1 210 37 210 38 134 70 134 69 106 -104 c58 -57 175
-159 259 -226 148 -119 160 -126 372 -226 120 -56 258 -125 307 -153 48 -27
147 -79 219 -115 113 -56 149 -69 268 -95 l138 -29 8 21 c42 108 43 109 144
164 86 48 101 60 137 115 23 34 71 91 109 127 65 62 71 73 140 228 74 170 100
275 100 408 l0 52 -84 46 c-46 25 -125 62 -176 81 -84 33 -304 166 -283 172 4
1 123 23 263 48 l255 45 340 0 c315 0 354 -2 525 -26 l185 -27 136 -76 c132
-74 144 -84 415 -333 153 -141 362 -322 464 -403 177 -139 198 -153 490 -310
235 -126 330 -172 416 -199 105 -34 113 -35 168 -24 68 15 76 27 76 118 0 120
-123 626 -197 810 -25 63 -117 248 -203 410 l-158 295 -37 152 -37 151 31 135
c29 132 34 142 209 494 265 530 372 843 372 1092 0 141 -5 161 -42 161 -17 0
-98 -20 -182 -46 -146 -44 -161 -51 -479 -230 -312 -175 -351 -200 -770 -500
-243 -174 -453 -327 -468 -340 -14 -13 -83 -49 -155 -80 -171 -74 -210 -79
-502 -60 -125 9 -294 18 -377 21 -147 6 -265 27 -265 48 0 18 93 141 162 213
37 39 102 97 143 130 41 32 75 62 75 65 0 3 -61 56 -135 118 -129 107 -240
224 -415 436 -78 94 -305 336 -393 418 -117 108 -322 210 -597 297 -270 84
-366 103 -510 98 -139 -5 -187 -21 -350 -114 -174 -100 -243 -157 -520 -433
l-255 -253 -135 17 c-74 10 -139 20 -144 23 -4 2 21 34 57 71 60 62 117 136
117 153 0 5 -17 8 -39 8 -61 0 -68 23 -36 103 6 15 1 17 -43 17 -64 0 -75 13
-66 80 l7 52 -46 -7 c-58 -9 -62 -1 -49 87 5 35 9 64 8 65 0 1 -39 -2 -84 -6
-121 -10 -123 -6 -73 103 l41 89 -109 -7 c-66 -4 -112 -3 -115 3 -5 7 20 102
41 157 4 10 -7 9 -40 -6 -88 -39 -177 -36 -177 7 0 8 16 42 36 75 20 32 34 61
32 64 -3 2 -49 -3 -104 -11 -117 -18 -137 -18 -186 -5 -49 14 -54 36 -28 116
12 36 20 67 18 70 -3 2 -20 -7 -38 -21 -57 -42 -113 -58 -181 -52 -87 8 -97
20 -76 94 8 32 14 59 13 60 -2 2 -25 -7 -52 -19 -36 -16 -74 -23 -146 -26
l-98 -4 0 31 c0 17 11 56 25 87 14 31 25 58 25 60 0 3 -31 -11 -69 -30 -80
-41 -190 -72 -216 -62 -16 6 -17 16 -12 90 l6 83 -71 -73 c-76 -79 -117 -104
-170 -104 -58 0 -72 18 -65 81 4 30 10 66 13 82 9 40 -8 33 -45 -17z"/>
</g>
</svg>
