<?xml version="1.0" standalone="no"?>
<!DOCTYPE svg PUBLIC "-//W3C//DTD SVG 20010904//EN"
 "http://www.w3.org/TR/2001/REC-SVG-20010904/DTD/svg10.dtd">
<svg version="1.0" xmlns="http://www.w3.org/2000/svg"
 width="1280.000000pt" height="640.000000pt" viewBox="0 0 1280.000000 640.000000"
 preserveAspectRatio="xMidYMid meet">
<g transform="translate(0.000000,640.000000) scale(0.100000,-0.100000)"
fill="#000000" stroke="none">
<path d="M6870 5896 c-195 -43 -406 -156 -584 -312 -43 -38 -212 -215 -375
-394 l-297 -325 -99 -13 c-371 -47 -934 -129 -1233 -180 -95 -16 -125 -16
-353 -4 l-250 13 -1806 450 c-993 247 -1815 451 -1827 452 -15 1 -21 -4 -21
-17 0 -22 -35 -10 755 -256 250 -78 554 -172 675 -210 121 -38 396 -123 610
-190 427 -133 606 -189 1281 -399 248 -78 455 -141 459 -141 4 0 56 -35 114
-79 224 -167 319 -220 510 -287 11 -3 10 -9 -5 -25 -38 -43 -45 -42 -252 11
-237 62 -465 130 -547 164 -54 22 -61 23 -72 9 -7 -9 -10 -19 -8 -23 7 -11
270 -213 420 -322 363 -265 767 -523 1130 -723 88 -49 179 -99 202 -112 40
-22 42 -26 48 -80 26 -253 52 -391 107 -555 103 -311 257 -557 509 -811 124
-126 138 -137 156 -126 19 12 18 17 -42 143 -146 305 -208 601 -230 1094 -5
110 -3 132 8 132 8 0 115 -24 238 -54 596 -145 1219 -252 1749 -300 127 -12
157 -18 168 -33 18 -22 97 -189 153 -320 153 -360 272 -502 486 -580 86 -31
95 -30 82 5 -16 39 -64 203 -89 302 -13 51 -23 118 -23 166 -1 69 3 89 26 137
32 64 75 106 149 143 106 54 104 53 415 43 283 -9 288 -10 302 -32 8 -12 38
-45 66 -73 56 -56 126 -88 215 -100 l52 -7 -61 82 c-34 46 -61 91 -61 102 0
18 5 19 48 14 26 -2 160 -12 297 -20 138 -9 264 -18 280 -20 49 -8 160 -176
335 -505 292 -550 315 -591 430 -745 79 -106 219 -243 309 -304 127 -87 335
-169 473 -187 l52 -7 -54 69 c-30 38 -64 82 -77 97 -43 54 -187 293 -250 417
-162 318 -229 591 -203 816 18 159 59 286 135 418 127 223 312 409 585 589
128 84 442 239 603 297 74 27 117 48 117 57 0 19 -131 79 -228 105 -103 27
-319 30 -444 5 -250 -50 -501 -165 -893 -412 -221 -138 -448 -251 -668 -330
-72 -26 -82 -27 -115 -15 -39 14 -360 201 -486 283 -92 60 -91 61 54 80 84 11
95 14 98 33 2 16 -5 23 -37 32 -73 22 -204 34 -303 27 l-97 -7 -63 38 c-35 21
-169 104 -298 184 -721 449 -1429 830 -2095 1124 -166 74 -186 86 -297 175
-205 165 -308 372 -279 561 23 149 97 275 243 416 151 146 328 253 448 269
l55 8 -55 24 c-133 60 -330 80 -470 49z"/>
</g>
</svg>
