<?xml version="1.0" standalone="no"?>
<!DOCTYPE svg PUBLIC "-//W3C//DTD SVG 20010904//EN"
 "http://www.w3.org/TR/2001/REC-SVG-20010904/DTD/svg10.dtd">
<svg version="1.0" xmlns="http://www.w3.org/2000/svg"
 width="1280.000000pt" height="816.000000pt" viewBox="0 0 1280.000000 816.000000"
 preserveAspectRatio="xMidYMid meet">
<g transform="translate(0.000000,816.000000) scale(0.100000,-0.100000)"
fill="#000000" stroke="none">
<path d="M5590 8154 c-300 -20 -401 -28 -565 -45 -225 -24 -548 -69 -768 -109
-152 -27 -159 -30 -200 -66 -23 -21 -431 -419 -906 -884 l-863 -845 -137 -46
c-359 -121 -671 -281 -891 -458 -85 -68 -240 -221 -300 -296 -121 -153 -227
-349 -289 -535 -60 -181 -101 -438 -101 -634 0 -110 -26 -221 -70 -304 -46
-86 -115 -172 -266 -332 -150 -159 -234 -269 -234 -308 0 -56 46 -118 208
-285 90 -92 162 -170 159 -173 -3 -3 -51 0 -108 7 -122 14 -193 3 -230 -37
-66 -70 10 -204 247 -435 162 -158 462 -416 639 -551 399 -303 871 -489 1625
-638 113 -22 214 -42 226 -45 12 -3 255 -206 541 -453 l521 -448 163 -28 c583
-99 962 -148 1464 -188 210 -16 850 -16 1020 0 600 59 1006 188 1310 415 244
183 413 453 471 753 9 49 47 199 84 334 38 135 85 306 105 380 38 135 38 135
99 198 237 246 565 373 876 342 300 -31 548 -165 815 -441 175 -180 292 -332
565 -734 331 -487 492 -677 680 -805 249 -169 522 -160 802 26 286 191 412
509 378 956 -19 250 -48 409 -185 998 -120 522 -154 723 -162 982 -12 352 36
597 252 1313 185 612 229 820 229 1095 0 147 -3 189 -22 262 -63 253 -213 435
-462 559 -124 62 -219 82 -364 77 -179 -7 -315 -56 -512 -186 -162 -106 -325
-255 -776 -706 -244 -243 -481 -475 -528 -513 -226 -187 -420 -303 -575 -344
-103 -28 -332 -31 -441 -6 -137 31 -341 115 -377 155 -10 11 -29 107 -56 287
-82 546 -141 935 -171 1130 -52 343 -111 514 -252 727 -322 485 -919 770
-1813 863 -141 15 -723 28 -855 19z"/>
</g>
</svg>
