<?xml version="1.0" standalone="no"?>
<!DOCTYPE svg PUBLIC "-//W3C//DTD SVG 20010904//EN"
 "http://www.w3.org/TR/2001/REC-SVG-20010904/DTD/svg10.dtd">
<svg version="1.0" xmlns="http://www.w3.org/2000/svg"
 width="1280.000000pt" height="653.000000pt" viewBox="0 0 1280.000000 653.000000"
 preserveAspectRatio="xMidYMid meet">
<g transform="translate(0.000000,653.000000) scale(0.100000,-0.100000)"
fill="#000000" stroke="none">
<path d="M9085 6523 c-870 -69 -1652 -406 -2535 -1093 -451 -351 -730 -607
-1620 -1481 -743 -730 -937 -911 -1241 -1155 -573 -460 -1048 -675 -1484 -674
-161 1 -341 35 -391 75 -25 20 -29 30 -29 72 1 203 430 667 1138 1231 125 100
141 126 95 156 -26 16 -182 37 -468 63 -269 24 -792 24 -977 0 -228 -29 -390
-70 -505 -128 -32 -16 -60 -29 -62 -29 -3 0 -4 161 -3 358 1 317 -1 374 -20
507 -50 349 -140 685 -273 1020 -26 66 -64 174 -85 240 -53 174 -65 208 -77
222 -14 17 -63 17 -76 0 -14 -17 -129 -361 -181 -542 -276 -966 -357 -1877
-230 -2595 192 -1087 878 -1761 1984 -1949 339 -58 217 -55 2280 -58 l1900 -4
1 -122 c2 -318 149 -533 417 -608 123 -35 342 -33 522 5 389 81 915 314 1514
670 l95 56 1410 0 c934 0 1433 4 1475 11 277 44 527 230 734 544 79 121 197
363 246 506 57 167 104 437 138 779 24 245 24 793 0 1015 -101 931 -405 1601
-957 2107 -519 476 -1243 741 -2180 798 -152 9 -460 11 -555 3z"/>
</g>
</svg>
